<?xml version="1.0" encoding="utf-8"?>
<!-- Generator: Adobe Illustrator 19.0.0, SVG Export Plug-In . SVG Version: 6.00 Build 0)  -->
<svg version="1.1" id="Слой_1" xmlns="http://www.w3.org/2000/svg" xmlns:xlink="http://www.w3.org/1999/xlink" x="0px" y="0px"
	 viewBox="0 0 493.3 170.9" style="enable-background:new 0 0 493.3 170.9;" xml:space="preserve">
<style type="text/css">
	.st0{fill:#002138;}
	.st1{fill:#E42313;}
</style>
<g>
	<g>
		<g>
			<path class="st0" d="M284.2,53.5l-1.2-6.6h-6.8l-1.2,6.6h-1.5l4.3-23.7c0-0.2,0.2-0.5,0.4-0.7c0.3-0.2,0.5-0.3,0.9-0.3h1
				c0.3,0,0.6,0.1,0.9,0.3c0.3,0.2,0.4,0.5,0.4,0.7l4.4,23.7H284.2z M276.5,45.4h6.3L280,30.6c0-0.1,0-0.2-0.1-0.2
				c-0.1-0.1-0.2-0.2-0.2-0.2h-0.2c-0.1,0-0.2,0.1-0.2,0.2c0,0.1-0.1,0.2-0.1,0.2L276.5,45.4z"/>
			<path class="st0" d="M297.8,28.9v1.5h-6.1v23.1h-1.5V28.9H297.8z"/>
			<path class="st0" d="M303.5,30.4v8.7h5.3v1.5h-5.3v11.3h6.1v1.5h-7.6V28.9h7.6v1.5H303.5z"/>
			<path class="st0" d="M323.4,28.9v24.6h-1.5V40.7h-6.3v12.8h-1.5V28.9h1.5v10.3h6.3V28.9H323.4z"/>
			<path class="st0" d="M333.5,30.4v23.1h-1.5V30.4h-4.3v-1.5h10.1v1.5H333.5z"/>
			<path class="st0" d="M349.4,44.5h1.5v4.9c0,0.6-0.1,1.2-0.3,1.7c-0.2,0.5-0.5,1-0.9,1.4c-0.4,0.4-0.9,0.7-1.4,1
				c-0.5,0.2-1.1,0.4-1.7,0.4h-0.6c-0.6,0-1.2-0.1-1.7-0.4c-0.5-0.2-1-0.6-1.4-1c-0.4-0.4-0.7-0.9-1-1.4c-0.2-0.5-0.4-1.1-0.4-1.7
				V33.1c0-0.6,0.1-1.2,0.4-1.7c0.2-0.5,0.6-1,1-1.4c0.4-0.4,0.9-0.7,1.4-0.9c0.5-0.2,1.1-0.3,1.7-0.3h0.6c0.6,0,1.2,0.1,1.7,0.3
				c0.5,0.2,1,0.5,1.4,0.9c0.4,0.4,0.7,0.9,0.9,1.4c0.2,0.5,0.3,1.1,0.3,1.7V37h-1.5v-3.9c0-0.4-0.1-0.8-0.2-1.1s-0.4-0.7-0.6-0.9
				c-0.3-0.3-0.6-0.5-0.9-0.6c-0.3-0.2-0.7-0.2-1.1-0.2h-0.6c-0.4,0-0.8,0.1-1.1,0.2c-0.4,0.2-0.7,0.4-0.9,0.6
				c-0.3,0.3-0.5,0.6-0.6,0.9c-0.2,0.3-0.2,0.7-0.2,1.1v16.2c0,0.4,0.1,0.8,0.2,1.1c0.2,0.4,0.4,0.7,0.6,0.9
				c0.3,0.3,0.6,0.5,0.9,0.6c0.4,0.2,0.7,0.2,1.1,0.2h0.6c0.8,0,1.5-0.3,2-0.8c0.5-0.6,0.8-1.2,0.8-2L349.4,44.5L349.4,44.5z"/>
			<path class="st0" d="M360.4,30.4v23.1h-1.5V30.4h-4.3v-1.5h10.1v1.5H360.4z"/>
			<path class="st0" d="M374.4,28.9c0.5,0,1,0.1,1.4,0.3c0.4,0.2,0.8,0.5,1.2,0.8c0.3,0.3,0.6,0.7,0.8,1.2c0.2,0.4,0.3,0.9,0.3,1.4
				V37c0,0.8-0.2,1.5-0.7,2.2c-0.4,0.7-1,1.1-1.7,1.4c0.8,0.3,1.4,0.8,1.9,1.4c0.5,0.7,0.7,1.4,0.7,2.3v5.5c0,0.5-0.1,1-0.3,1.4
				c-0.2,0.4-0.5,0.8-0.8,1.2c-0.3,0.3-0.7,0.6-1.2,0.8c-0.4,0.2-0.9,0.3-1.4,0.3h-5.8V28.9H374.4z M374.3,39.9
				c0.2-0.1,0.4-0.2,0.7-0.4c0.3-0.1,0.5-0.3,0.7-0.6c0.2-0.2,0.4-0.5,0.6-0.8s0.2-0.7,0.2-1v-4.5c0-0.6-0.2-1.1-0.6-1.5
				c-0.4-0.5-0.9-0.7-1.5-0.7h-4v9.5H374.3z M376.8,44.3c0-0.4-0.1-0.8-0.3-1.1c-0.2-0.3-0.4-0.6-0.7-0.8c-0.3-0.2-0.5-0.4-0.8-0.6
				c-0.3-0.2-0.5-0.3-0.8-0.4h-3.8v10.5h4.2c0.6,0,1.1-0.2,1.6-0.6c0.4-0.4,0.6-0.9,0.6-1.5V44.3z"/>
			<path class="st0" d="M392.5,49.4c0,0.6-0.1,1.2-0.3,1.7c-0.2,0.5-0.5,1-0.9,1.4c-0.4,0.4-0.9,0.7-1.4,1c-0.5,0.2-1.1,0.4-1.7,0.4
				h-0.6c-0.6,0-1.2-0.1-1.7-0.4c-0.5-0.2-1-0.6-1.4-1c-0.4-0.4-0.7-0.9-1-1.4c-0.2-0.5-0.4-1.1-0.4-1.7V33.1c0-0.6,0.1-1.2,0.4-1.7
				c0.2-0.5,0.6-1,1-1.4c0.4-0.4,0.9-0.7,1.4-0.9c0.5-0.2,1.1-0.3,1.7-0.3h0.6c0.6,0,1.2,0.1,1.7,0.3c0.5,0.2,1,0.5,1.4,0.9
				c0.4,0.4,0.7,0.9,0.9,1.4c0.2,0.5,0.3,1.1,0.3,1.7V49.4z M391,33.1c0-0.4-0.1-0.8-0.2-1.1c-0.2-0.3-0.4-0.7-0.6-0.9
				c-0.3-0.3-0.6-0.5-0.9-0.6c-0.3-0.2-0.7-0.2-1.1-0.2h-0.6c-0.4,0-0.8,0.1-1.1,0.2c-0.4,0.2-0.7,0.4-0.9,0.6
				c-0.3,0.3-0.5,0.6-0.6,0.9c-0.2,0.3-0.2,0.7-0.2,1.1v16.2c0,0.4,0.1,0.8,0.2,1.1c0.2,0.4,0.4,0.7,0.6,0.9
				c0.3,0.3,0.6,0.5,0.9,0.6c0.4,0.2,0.7,0.2,1.1,0.2h0.6c0.4,0,0.8-0.1,1.1-0.2c0.3-0.2,0.7-0.4,0.9-0.6c0.3-0.3,0.5-0.6,0.6-0.9
				c0.2-0.4,0.2-0.7,0.2-1.1V33.1z"/>
			<path class="st0" d="M275.3,67.3h4.9c0.6,0,1.2,0.1,1.7,0.3c0.5,0.2,1,0.5,1.4,0.9c0.4,0.4,0.7,0.8,0.9,1.3
				c0.2,0.5,0.3,1.1,0.3,1.7V77c0,0.6-0.1,1.2-0.3,1.7c-0.2,0.5-0.5,1-0.9,1.4c-0.4,0.4-0.9,0.7-1.4,1c-0.5,0.2-1.1,0.4-1.7,0.4
				h-3.4v10.5h-1.5V67.3z M276.8,68.8v11h3.4c0.4,0,0.8-0.1,1.1-0.2c0.3-0.2,0.6-0.4,0.9-0.6c0.3-0.3,0.5-0.6,0.6-0.9
				c0.2-0.4,0.2-0.7,0.2-1.1v-5.4c0-0.8-0.3-1.4-0.8-1.9c-0.6-0.5-1.2-0.8-2-0.8H276.8z"/>
			<path class="st0" d="M290.8,68.8v8.7h5.3v1.5h-5.3v11.3h6.1v1.5h-7.6V67.3h7.6v1.5H290.8z"/>
			<path class="st0" d="M309,67.3v1.5h-6.1v23.1h-1.5V67.3H309z"/>
			<path class="st0" d="M321.1,91.9V72.6l-6.3,18.3v1h-1.5V67.3h1.5v19.3l6.3-18.3v-1h1.5v24.6H321.1z"/>
			<path class="st0" d="M337.2,87.8c0,0.6-0.1,1.2-0.3,1.7c-0.2,0.5-0.5,1-0.9,1.4c-0.4,0.4-0.9,0.7-1.4,1c-0.5,0.2-1.1,0.4-1.7,0.4
				h-0.6c-0.6,0-1.2-0.1-1.7-0.4c-0.5-0.2-1-0.6-1.4-1c-0.4-0.4-0.7-0.9-1-1.4c-0.2-0.5-0.4-1.1-0.4-1.7V71.6c0-0.6,0.1-1.2,0.4-1.7
				c0.2-0.5,0.6-1,1-1.4c0.4-0.4,0.9-0.7,1.4-0.9c0.5-0.2,1.1-0.3,1.7-0.3h0.6c0.6,0,1.2,0.1,1.7,0.3c0.5,0.2,1,0.5,1.4,0.9
				c0.4,0.4,0.7,0.9,0.9,1.4c0.2,0.5,0.3,1.1,0.3,1.7V87.8z M335.6,71.6c0-0.4-0.1-0.8-0.2-1.1c-0.2-0.3-0.4-0.7-0.6-0.9
				c-0.3-0.3-0.6-0.5-0.9-0.6c-0.3-0.2-0.7-0.2-1.1-0.2h-0.6c-0.4,0-0.8,0.1-1.1,0.2c-0.4,0.2-0.7,0.4-0.9,0.6
				c-0.3,0.3-0.5,0.6-0.6,0.9c-0.2,0.3-0.2,0.7-0.2,1.1v16.2c0,0.4,0.1,0.8,0.2,1.1c0.2,0.4,0.4,0.7,0.6,0.9
				c0.3,0.3,0.6,0.5,0.9,0.6c0.4,0.2,0.7,0.2,1.1,0.2h0.6c0.4,0,0.8-0.1,1.1-0.2c0.3-0.2,0.7-0.4,0.9-0.6c0.3-0.3,0.5-0.6,0.6-0.9
				c0.2-0.4,0.2-0.7,0.2-1.1V71.6z"/>
			<path class="st0" d="M351.6,67.3v24.6h-1.5V79.1h-6.3v12.8h-1.5V67.3h1.5v10.3h6.3V67.3H351.6z"/>
			<path class="st0" d="M366.7,91.9l-1.2-6.6h-6.8l-1.2,6.6h-1.5l4.3-23.7c0-0.2,0.2-0.5,0.4-0.7c0.3-0.2,0.5-0.3,0.9-0.3h1
				c0.3,0,0.6,0.1,0.9,0.3s0.4,0.5,0.4,0.7l4.4,23.7H366.7z M359,83.8h6.3l-2.7-14.7c0-0.1,0-0.2-0.1-0.2c-0.1-0.1-0.2-0.2-0.2-0.2
				h-0.2c-0.1,0-0.2,0.1-0.2,0.2c0,0.1-0.1,0.2-0.1,0.2L359,83.8z"/>
			<path class="st0" d="M371.9,90.6c0.5,0,1-0.1,1.4-0.3c0.4-0.2,0.7-0.4,1-0.7c0.3-0.3,0.5-0.6,0.6-0.9c0.1-0.3,0.2-0.6,0.2-0.8
				l0.8-20.6h8.8v24.6h-1.5V68.8h-5.8l-0.8,19.1c0,0.6-0.2,1.2-0.4,1.7c-0.3,0.5-0.6,1-1.1,1.4c-0.4,0.4-0.9,0.7-1.5,0.9
				c-0.6,0.2-1.2,0.3-1.8,0.3h-0.3v-1.5H371.9z"/>
			<path class="st0" d="M398.8,88.1c0,0.6-0.1,1.1-0.3,1.6c-0.2,0.5-0.5,0.9-0.9,1.3c-0.4,0.4-0.8,0.7-1.3,0.9
				c-0.5,0.2-1,0.3-1.6,0.3h-0.7c-0.6,0-1.1-0.1-1.6-0.3c-0.5-0.2-0.9-0.5-1.3-0.9c-0.4-0.4-0.7-0.8-0.9-1.3c-0.2-0.5-0.3-1-0.3-1.6
				V67.3h1.5v9.9c0.5-0.4,1-0.8,1.6-1.1c0.5-0.3,0.9-0.5,1.4-0.8c0.5-0.2,1-0.3,1.4-0.3c0.8,0,1.5,0.3,2.1,0.9
				c0.6,0.6,0.9,1.3,0.9,2.1V88.1z M397.3,77.9c0-0.4-0.1-0.8-0.4-1c-0.3-0.3-0.6-0.4-1-0.4c-0.4,0-0.9,0.1-1.4,0.4
				c-0.5,0.3-1,0.5-1.4,0.9c-0.5,0.4-1.1,0.8-1.6,1.3v9.1c0,0.7,0.2,1.3,0.7,1.8c0.5,0.5,1.1,0.7,1.8,0.7h0.7c0.7,0,1.3-0.2,1.8-0.7
				c0.5-0.5,0.7-1.1,0.7-1.8V77.9z"/>
			<path class="st0" d="M413.2,67.3v24.6h-1.5V79.1h-6.3v12.8h-1.5V67.3h1.5v10.3h6.3V67.3H413.2z"/>
			<path class="st0" d="M427.3,88.1c0,0.6-0.1,1.1-0.3,1.6c-0.2,0.5-0.5,0.9-0.9,1.3c-0.4,0.4-0.8,0.7-1.3,0.9
				c-0.5,0.2-1,0.3-1.6,0.3h-0.7c-0.6,0-1.1-0.1-1.6-0.3c-0.5-0.2-0.9-0.5-1.3-0.9c-0.4-0.4-0.7-0.8-0.9-1.3c-0.2-0.5-0.3-1-0.3-1.6
				V67.3h1.5v9.9c0.5-0.4,1-0.8,1.6-1.1c0.5-0.3,0.9-0.5,1.4-0.8c0.5-0.2,1-0.3,1.4-0.3c0.8,0,1.5,0.3,2.1,0.9
				c0.6,0.6,0.9,1.3,0.9,2.1V88.1z M425.7,77.9c0-0.4-0.1-0.8-0.4-1c-0.3-0.3-0.6-0.4-1-0.4c-0.4,0-0.9,0.1-1.4,0.4
				c-0.5,0.3-1,0.5-1.4,0.9c-0.5,0.4-1.1,0.8-1.6,1.3v9.1c0,0.7,0.2,1.3,0.7,1.8c0.5,0.5,1.1,0.7,1.8,0.7h0.7c0.7,0,1.3-0.2,1.8-0.7
				c0.5-0.5,0.7-1.1,0.7-1.8V77.9z M432.1,91.9h-1.5V67.3h1.5V91.9z"/>
			<path class="st0" d="M445,67.3h1.6l-3.6,10.6l4.8,14h-1.6l-4-12.3l-4,12.3h-1.6l4.7-14l-3.6-10.6h1.6l2.8,8.9L445,67.3z"/>
			<path class="st0" d="M283.1,130.3V111l-6.3,18.3v1h-1.5v-24.6h1.5V125l6.3-18.3v-1h1.5v24.6H283.1z"/>
			<path class="st0" d="M299.4,105.7v24.6h-1.5v-12.8h-6.3v12.8H290v-24.6h1.5V116h6.3v-10.3H299.4z"/>
			<path class="st0" d="M310.3,105.7c0.5,0,1,0.1,1.4,0.3c0.4,0.2,0.8,0.5,1.2,0.8c0.3,0.3,0.6,0.7,0.8,1.2c0.2,0.4,0.3,0.9,0.3,1.4
				v4.4c0,0.8-0.2,1.5-0.7,2.2c-0.4,0.7-1,1.1-1.7,1.4c0.8,0.3,1.4,0.8,1.9,1.4c0.5,0.7,0.7,1.4,0.7,2.3v5.5c0,0.5-0.1,1-0.3,1.4
				c-0.2,0.4-0.5,0.8-0.8,1.2c-0.3,0.3-0.7,0.6-1.2,0.8c-0.4,0.2-0.9,0.3-1.4,0.3h-5.8v-24.6H310.3z M310.1,116.7
				c0.2-0.1,0.4-0.2,0.7-0.4c0.3-0.1,0.5-0.3,0.7-0.6c0.2-0.2,0.4-0.5,0.6-0.8c0.2-0.3,0.2-0.7,0.2-1v-4.5c0-0.6-0.2-1.1-0.6-1.5
				c-0.4-0.5-0.9-0.7-1.5-0.7h-4v9.5H310.1z M312.6,121.2c0-0.4-0.1-0.8-0.3-1.1c-0.2-0.3-0.4-0.6-0.7-0.8c-0.3-0.2-0.5-0.4-0.8-0.6
				c-0.3-0.2-0.5-0.3-0.8-0.4h-3.8v10.5h4.2c0.6,0,1.1-0.2,1.6-0.6c0.4-0.4,0.6-0.9,0.6-1.5V121.2z"/>
			<path class="st0" d="M320.7,107.3v8.7h5.3v1.5h-5.3v11.3h6.1v1.5h-7.6v-24.6h7.6v1.5H320.7z"/>
			<path class="st0" d="M338.7,121.4h1.5v4.9c0,0.6-0.1,1.2-0.3,1.7c-0.2,0.5-0.5,1-0.9,1.4c-0.4,0.4-0.9,0.7-1.4,1
				c-0.5,0.2-1.1,0.4-1.7,0.4h-0.6c-0.6,0-1.2-0.1-1.7-0.4c-0.5-0.2-1-0.6-1.4-1c-0.4-0.4-0.7-0.9-1-1.4c-0.2-0.5-0.4-1.1-0.4-1.7
				V110c0-0.6,0.1-1.2,0.4-1.7c0.2-0.5,0.6-1,1-1.4c0.4-0.4,0.9-0.7,1.4-0.9c0.5-0.2,1.1-0.3,1.7-0.3h0.6c0.6,0,1.2,0.1,1.7,0.3
				c0.5,0.2,1,0.5,1.4,0.9c0.4,0.4,0.7,0.9,0.9,1.4c0.2,0.5,0.3,1.1,0.3,1.7v3.9h-1.5V110c0-0.4-0.1-0.8-0.2-1.1
				c-0.2-0.3-0.4-0.7-0.6-0.9c-0.3-0.3-0.6-0.5-0.9-0.6c-0.3-0.2-0.7-0.2-1.1-0.2h-0.6c-0.4,0-0.8,0.1-1.1,0.2
				c-0.4,0.2-0.7,0.4-0.9,0.6c-0.3,0.3-0.5,0.6-0.6,0.9c-0.2,0.3-0.2,0.7-0.2,1.1v16.2c0,0.4,0.1,0.8,0.2,1.1
				c0.2,0.4,0.4,0.7,0.6,0.9c0.3,0.3,0.6,0.5,0.9,0.6c0.4,0.2,0.7,0.2,1.1,0.2h0.6c0.8,0,1.5-0.3,2-0.8c0.5-0.6,0.8-1.2,0.8-2
				L338.7,121.4L338.7,121.4z"/>
			<path class="st0" d="M349.7,107.3v23.1h-1.5v-23.1h-4.3v-1.5H354v1.5H349.7z"/>
			<path class="st0" d="M366,130.3V111l-6.3,18.3v1h-1.5v-24.6h1.5V125l6.3-18.3v-1h1.5v24.6H366z"/>
			<path class="st0" d="M384.7,133.1h-1.5v-2.8h-10.3v-24.6h1.5v23.1h6.3v-23.1h1.5v23.1h2.4V133.1z"/>
			<path class="st0" d="M396.9,130.3V111l-6.3,18.3v1H389v-24.6h1.5V125l6.3-18.3v-1h1.5v24.6H396.9z"/>
			<path class="st0" d="M411.6,130.3V111l-6.3,18.3v1h-1.5v-24.6h1.5V125l6.3-18.3v-1h1.5v24.6H411.6z M411.4,103.6
				c0,0.8-0.3,1.5-0.9,2.1c-0.6,0.6-1.3,0.9-2.1,0.9c-0.8,0-1.5-0.3-2.1-0.9c-0.6-0.6-0.9-1.3-0.9-2.1h1.5c0,0.4,0.1,0.7,0.4,1
				c0.3,0.3,0.6,0.4,1,0.4c0.4,0,0.7-0.1,1-0.4c0.3-0.3,0.4-0.6,0.4-1H411.4z"/>
		</g>
	</g>
	<path class="st1" d="M261,105.5l-17.9-38.2c-0.1-0.2-0.2-0.3-0.4-0.4l-30.4-21.8c-0.3-0.2-0.7-0.3-1-0.2l-45.1,14.5
		c-0.3,0.1-0.7,0.1-1-0.2L120.8,28c-0.3-0.2-0.7-0.3-1-0.2L72.6,43.1c-0.2,0.1-0.4,0.2-0.6,0.4L29.6,103c-0.6,0.9,0.2,2.1,1.3,1.8
		l103.8-33.5c1-0.3,1.8,0.7,1.4,1.6l-18.8,36.8c-0.5,0.9,0.4,2,1.4,1.6l32.9-11.6c0.6-0.2,1.2,0.1,1.4,0.6l19.5,41.6
		c0.4,0.9,1.7,0.9,2.1-0.1L197.2,85c0.2-0.6,0.9-0.9,1.5-0.7l60.9,22.7C260.5,107.4,261.4,106.4,261,105.5z M256.4,104.1l-53.6-20
		c-1-0.4-1-1.8,0-2.2l38.1-13.2c0.6-0.2,1.2,0.1,1.4,0.6l15.5,33.3C258.2,103.5,257.3,104.5,256.4,104.1z M199.4,79.4l12.3-31.2
		c0.3-0.7,1.1-0.9,1.7-0.5l25.3,18.2c0.8,0.5,0.6,1.7-0.3,2l-37.6,13C199.9,81.2,199,80.3,199.4,79.4z M209.6,49.1l-12.3,31.1
		c-0.3,0.7-1.1,0.9-1.7,0.5l-26.4-18.6c-0.8-0.5-0.6-1.7,0.3-2l38.7-12.5C209.1,47.3,209.9,48.2,209.6,49.1z M193.5,83.4l-39,13.5
		c-0.6,0.2-1.2-0.1-1.4-0.6l-12.1-25.8c-0.3-0.6,0-1.4,0.7-1.6l23.2-7.5c0.3-0.1,0.7-0.1,1,0.2l27.9,19.7
		C194.5,82,194.4,83.1,193.5,83.4z M139.2,67l-15.2-32.1c-0.5-1.1,0.7-2.1,1.7-1.4l36,25.4c0.8,0.5,0.6,1.7-0.3,2l-20.9,6.7
		C140.1,67.8,139.5,67.6,139.2,67z M135,66.5L78,45.2c-1-0.4-1-1.8,0-2.2l40.7-13.2c0.6-0.2,1.1,0.1,1.4,0.6l16.3,34.5
		C136.9,65.9,136,66.9,135,66.5z M73.6,45.3l60.1,22.5c1,0.4,1,1.8,0,2.2L35,101.7c-1.1,0.3-1.9-0.9-1.3-1.8l38.5-54.2
		C72.6,45.3,73.1,45.1,73.6,45.3z M120.7,106.6l17.3-33.9c0.4-0.8,1.7-0.8,2.1,0l11.3,24c0.3,0.6,0,1.4-0.7,1.6l-28.6,9.9
		C121.2,108.5,120.3,107.5,120.7,106.6z M172.5,137.6l-17.8-37.7c-0.3-0.6,0-1.4,0.7-1.6l37.8-13.1c0.9-0.3,1.8,0.6,1.4,1.5
		l-20.1,50.8C174.3,138.5,173,138.6,172.5,137.6z"/>
</g>
</svg>
